# xmcd
#
# Track frame offsets:
#       151
#       17648
#       28374
#       42481
#       58569
#       68222
#       80098
#       94098
#       106672
#       119017
#       135643
#       149271
#       162727
#       173119
#       184612
#       198284
#
# Disc length: 2755 seconds
#
# Revision: 1
# Processed by: cddbd v1.5.1PL0 Copyright (c) Steve Scherf et al.
# Submitted via: MusiCat 1.1
#
DISCID=e60ac110
DTITLE=Emily Druce - The Guilt Trip
DYEAR=2000
DGENRE=
TTITLE0=Stony Road
TTITLE1=Tell Me So
TTITLE2=Everybody Oughta Make A Change
TTITLE3=So Much More
TTITLE4=Walking After Midnight
TTITLE5=Love In Vain
TTITLE6=Make My Getaway
TTITLE7=Sitting Alone In The Moonlight
TTITLE8=Has Anyone Seen My Man?
TTITLE9=Matter Of Luck
TTITLE10=Big Road Blues
TTITLE11=Guilt Trip
TTITLE12=Have A Little Faith In Me
TTITLE13=Rambling On My Mind
TTITLE14=I'm So Glad
TTITLE15=Give Your Mama One Smile
EXTD=Roly Recordings\nRoly 001\n
EXTT0=
EXTT1=
EXTT2=
EXTT3=
EXTT4=
EXTT5=
EXTT6=
EXTT7=
EXTT8=
EXTT9=
EXTT10=
EXTT11=
EXTT12=
EXTT13=
EXTT14=
EXTT15=
PLAYORDER=
